<svg aria-hidden="true" style="position: absolute; width: 0; height: 0; overflow: hidden;" version="1.1" xmlns="http://www.w3.org/2000/svg" xmlns:xlink="http://www.w3.org/1999/xlink">
<defs>
<symbol id="icon-clouds" viewBox="0 0 35 32">
<path d="M21.254 17.031c0 0 0.479-6.444-5.427-7.179-5.062-0.517-6.602 4.187-6.602 4.187s-1.524-1.466-3.592-0.269c-1.851 1.143-1.523 3.234-1.523 3.234s-4.11 0.799-4.11 4.99c0.113 4.256 4.437 4.15 4.437 4.15l16.173 0.043c0 0 3.871 0.045 4.576-3.943 0.273-4.353-3.932-5.213-3.932-5.213zM31.254 13.032c0 0 0.479-6.444-5.426-7.18-5.062-0.517-6.664 4.249-6.664 4.249s2.949 1.711 3.074 6.336c1.875 0.563 3.873 2.11 3.936 5.735l4.436 0.016c0 0 3.871 0.045 4.576-3.943 0.273-4.355-3.932-5.213-3.932-5.213z"></path>
</symbol>
<symbol id="icon-wind" viewBox="0 0 32 32">
<path d="M30 14c0-2.209-1.795-4-4-4-2.209 0-4 1.789-4 4h2c0-1.105 0.888-2 2-2 1.105 0 2 0.888 2 2 0 1.105-0.89 2-2.004 2h-22.996v2h23.002c2.208 0 3.998-1.795 3.998-4v0zM21 10c0-2.209-1.795-4-4-4-2.209 0-4 1.789-4 3.997v0.003h2c0-1.105 0.888-2 2-2 1.105 0 2 0.888 2 2 0 1.105-0.897 2-2.006 2h-11.994v2h12.004c2.207 0 3.996-1.795 3.996-4v0zM26 23c0 1.657-1.347 3-3 3v0c-1.657 0-3-1.342-3-2.991v-0.009h2c0 0.552 0.444 1 1 1v0c0.552 0 1-0.444 1-1v0c0-0.552-0.449-1-1.007-1h-13.993v-2h14c1.657 0 3 1.347 3 3v0 0z"></path>
</symbol>
<symbol id="icon-thermometer" viewBox="0 0 32 32">
<path d="M16.986 23.166c1.173 0.408 2.014 1.523 2.014 2.834 0 1.657-1.343 3-3 3s-3-1.343-3-3c0-1.311 0.841-2.426 2.014-2.834-0.009-0.055-0.014-0.111-0.014-0.168v-9.995c0-0.547 0.448-1.002 1-1.002 0.556 0 1 0.449 1 1.002v9.995c0 0.057-0.005 0.113-0.014 0.168v0zM18 22.535v-18.532c0-1.107-0.888-2.004-2-2.004-1.105 0-2 0.89-2 2.004v18.532c-1.196 0.692-2 1.984-2 3.465 0 2.209 1.791 4 4 4s4-1.791 4-4c0-1.481-0.804-2.773-2-3.465zM19.969 21.5c1.246 1.099 2.031 2.708 2.031 4.5 0 3.314-2.686 6-6 6s-6-2.686-6-6c0-1.792 0.786-3.401 2.031-4.5-0.021-0.165-0.031-0.332-0.031-0.503v-16.994c0-2.205 1.791-4.003 4-4.003 2.205 0 4 1.792 4 4.003v16.994c0 0.17-0.011 0.338-0.031 0.503v0 0z"></path>
</symbol>
<symbol id="icon-humidity" viewBox="0 0 20 20">
<path d="M10.203 0.561c-0.027-0.215-0.38-0.215-0.406 0-0.883 7.107-5.398 8.572-5.398 13.512 0 3.053 2.564 5.527 5.601 5.527s5.6-2.475 5.6-5.527c0-4.94-4.514-6.405-5.397-13.512zM9.35 8.418c-0.059 0.219-0.123 0.444-0.189 0.678-0.401 1.424-0.856 3.039-0.856 4.906 0 1.012-0.598 1.371-1.156 1.371-0.639 0-1.156-0.523-1.156-1.166 0-2.207 1.062-3.649 2-4.92 0.295-0.398 0.572-0.775 0.797-1.15 0.103-0.172 0.38-0.164 0.506 0.006 0.059 0.080 0.079 0.182 0.054 0.275z"></path>
</symbol>
<symbol id="icon-arrow-down" viewBox="0 0 24 24">
<path d="M7.406 8.578l4.594 4.594 4.594-4.594 1.406 1.406-6 6-6-6z"></path>
</symbol>
<symbol id="icon-rain" viewBox="0 0 32 32">
<path d="M9 11.5c0-1.684 2.511-4.5 2.511-4.5s2.489 2.816 2.489 4.5c0 1.2-0.813 2.5-2.489 2.5s-2.511-1.2-2.511-2.5v0zM19 15.5c0-1.684 2.511-4.5 2.511-4.5s2.489 2.816 2.489 4.5c0 1.2-0.813 2.5-2.489 2.5s-2.511-1.2-2.511-2.5v0zM12 23.5c0-1.684 2.511-4.5 2.511-4.5s2.489 2.816 2.489 4.5c0 1.2-0.813 2.5-2.489 2.5s-2.511-1.2-2.511-2.5v0z"></path>
</symbol>
<symbol id="icon-settings" viewBox="0 0 32 32">
<path d="M29.181 19.070c-1.679-2.908-0.669-6.634 2.255-8.328l-3.145-5.447c-0.898 0.527-1.943 0.829-3.058 0.829-3.361 0-6.085-2.742-6.085-6.125h-6.289c0.008 1.044-0.252 2.103-0.811 3.070-1.679 2.908-5.411 3.897-8.339 2.211l-3.144 5.447c0.905 0.515 1.689 1.268 2.246 2.234 1.676 2.903 0.672 6.623-2.241 8.319l3.145 5.447c0.895-0.522 1.935-0.82 3.044-0.82 3.35 0 6.067 2.725 6.084 6.092h6.289c-0.003-1.034 0.259-2.080 0.811-3.038 1.676-2.903 5.399-3.894 8.325-2.219l3.145-5.447c-0.899-0.515-1.678-1.266-2.232-2.226zM16 22.479c-3.578 0-6.479-2.901-6.479-6.479s2.901-6.479 6.479-6.479c3.578 0 6.479 2.901 6.479 6.479s-2.901 6.479-6.479 6.479z"></path>
</symbol>
</defs>
</svg>
